<svg width="28" height="28" viewBox="0 0 28 28" fill="none" xmlns="http://www.w3.org/2000/svg">
<path d="M27.0389 23.7445L20.4292 18.1236C19.7455 17.508 19.0148 17.2272 18.4253 17.2534C19.9862 15.4257 20.928 13.0556 20.928 10.464C20.928 4.68438 16.2436 0 10.464 0C4.68438 0 0 4.68438 0 10.464C0 16.2436 4.68438 20.928 10.464 20.928C13.0556 20.928 15.4257 19.9862 17.2534 18.4253C17.2255 19.0148 17.508 19.7455 18.1236 20.4292L23.7445 27.0389C24.7072 28.108 26.2786 28.1987 27.2378 27.2395C28.197 26.2803 28.1063 24.7072 27.0372 23.7463L27.0389 23.7445ZM10.464 17.4382C6.6115 17.4382 3.488 14.3147 3.488 10.4622C3.488 6.60975 6.6115 3.48625 10.464 3.48625C14.3165 3.48625 17.44 6.60975 17.44 10.4622C17.44 14.3147 14.3165 17.4382 10.464 17.4382Z" fill="#221C1C"/>
</svg>
